<?xml version="1.0" encoding="UTF-8" standalone="no"?>
<!DOCTYPE svg PUBLIC "-//W3C//DTD SVG 1.1//EN" "http://www.w3.org/Graphics/SVG/1.1/DTD/svg11.dtd">
<!-- Generated by Microsoft Visio, SVG Export Figures.svg Page-1 -->
<svg xmlns="http://www.w3.org/2000/svg" xmlns:xlink="http://www.w3.org/1999/xlink" xmlns:ev="http://www.w3.org/2001/xml-events"
		xmlns:v="http://schemas.microsoft.com/visio/2003/SVGExtensions/" width="9.96959in" height="5.46875in"
		viewBox="0 0 717.81 393.75" xml:space="preserve" color-interpolation-filters="sRGB" class="st11">
	<v:documentProperties v:langID="1033" v:viewMarkup="false"/>

	<style type="text/css">
	<![CDATA[
		.st1 {visibility:visible}
		.st2 {fill:#5b9bd5;fill-opacity:0.22;filter:url(#filter_2);stroke:#5b9bd5;stroke-opacity:0.22}
		.st3 {fill:#5b9bd5;stroke:#c7c8c8;stroke-width:0.25}
		.st4 {fill:#feffff;font-family:Calibri;font-size:0.833336em}
		.st5 {font-size:1em}
		.st6 {fill:url(#grad0-73);stroke:#4f87bb;stroke-width:0.75}
		.st7 {fill:#41719c;fill-opacity:0.25;filter:url(#filter_2);stroke:#41719c;stroke-opacity:0.25}
		.st8 {fill:#386288;stroke:#2d5171;stroke-width:0.75}
		.st9 {marker-end:url(#mrkr4-185);stroke:#5b9bd5;stroke-linecap:round;stroke-linejoin:round;stroke-width:1}
		.st10 {fill:#5b9bd5;fill-opacity:1;stroke:#5b9bd5;stroke-opacity:1;stroke-width:0.28409090909091}
		.st11 {fill:none;fill-rule:evenodd;font-size:12px;overflow:visible;stroke-linecap:square;stroke-miterlimit:3}
	]]>
	</style>

	<defs id="Patterns_And_Gradients">
		<linearGradient id="grad0-73" x1="0" y1="0" x2="1" y2="0" gradientTransform="rotate(60 0.5 0.5)">
			<stop offset="0" stop-color="#e9eff7" stop-opacity="1"/>
			<stop offset="0.24" stop-color="#f4f7fb" stop-opacity="1"/>
			<stop offset="0.54" stop-color="#feffff" stop-opacity="1"/>
		</linearGradient>
	</defs>
	<defs id="Markers">
		<g id="lend4">
			<path d="M 2 1 L 0 0 L 2 -1 L 2 1 " style="stroke:none"/>
		</g>
		<marker id="mrkr4-185" class="st10" v:arrowType="4" v:arrowSize="2" v:setback="7.04" refX="-7.04" orient="auto"
				markerUnits="strokeWidth" overflow="visible">
			<use xlink:href="#lend4" transform="scale(-3.52,-3.52) "/>
		</marker>
	</defs>
	<defs id="Filters">
		<filter id="filter_2">
			<feGaussianBlur stdDeviation="2"/>
		</filter>
	</defs>
	<g v:mID="0" v:index="1" v:groupContext="foregroundPage">
		<title>Page-1</title>
		<v:pageProperties v:drawingScale="1" v:pageScale="1" v:drawingUnits="0" v:shadowOffsetX="9" v:shadowOffsetY="-9"/>
		<v:layer v:name="Connector" v:index="0"/>
		<g id="shape10-1" v:mID="10" v:groupContext="shape" transform="translate(79.5898,-272.348)">
			<title>Parallelogram</title>
			<desc>Review File</desc>
			<v:userDefs>
				<v:ud v:nameU="visVersion" v:prompt="" v:val="VT0(15):26"/>
			</v:userDefs>
			<v:textBlock v:margins="rect(4,4,4,4)"/>
			<v:textRect cx="36" cy="369.75" width="72" height="48"/>
			<g id="shadow10-2" v:groupContext="shadow" v:shadowOffsetX="0.345598" v:shadowOffsetY="-1.97279" v:shadowType="1"
					transform="matrix(1,0,0,1,0.345598,1.97279)" class="st1">
				<path d="M0 393.75 L64.8 393.75 L72 345.75 L7.2 345.75 L0 393.75 Z" class="st2"/>
			</g>
			<path d="M0 393.75 L64.8 393.75 L72 345.75 L7.2 345.75 L0 393.75 Z" class="st3"/>
			<text x="13.12" y="372.75" class="st4" v:langID="1033"><v:paragraph v:horizAlign="1"/><v:tabList/>Review File</text>		</g>
		<g id="shape11-7" v:mID="11" v:groupContext="shape" transform="translate(3.08985,-83.3478)">
			<title>Parallelogram.11</title>
			<desc>reviews.txt</desc>
			<v:userDefs>
				<v:ud v:nameU="visVersion" v:prompt="" v:val="VT0(15):26"/>
			</v:userDefs>
			<v:textBlock v:margins="rect(4,4,4,4)"/>
			<v:textRect cx="36" cy="369.75" width="72" height="48"/>
			<g id="shadow11-8" v:groupContext="shadow" v:shadowOffsetX="0.345598" v:shadowOffsetY="-1.97279" v:shadowType="1"
					transform="matrix(1,0,0,1,0.345598,1.97279)" class="st1">
				<path d="M0 393.75 L64.8 393.75 L72 345.75 L7.2 345.75 L0 393.75 Z" class="st2"/>
			</g>
			<path d="M0 393.75 L64.8 393.75 L72 345.75 L7.2 345.75 L0 393.75 Z" class="st3"/>
			<text x="13.57" y="372.75" class="st4" v:langID="1033"><v:paragraph v:horizAlign="1"/><v:tabList/>reviews.txt</text>		</g>
		<g id="shape12-13" v:mID="12" v:groupContext="shape" transform="translate(133.59,-83.3478)">
			<title>Parallelogram.12</title>
			<desc>pterms.txt</desc>
			<v:userDefs>
				<v:ud v:nameU="visVersion" v:prompt="" v:val="VT0(15):26"/>
			</v:userDefs>
			<v:textBlock v:margins="rect(4,4,4,4)"/>
			<v:textRect cx="36" cy="369.75" width="72" height="48"/>
			<g id="shadow12-14" v:groupContext="shadow" v:shadowOffsetX="0.345598" v:shadowOffsetY="-1.97279" v:shadowType="1"
					transform="matrix(1,0,0,1,0.345598,1.97279)" class="st1">
				<path d="M0 393.75 L64.8 393.75 L72 345.75 L7.2 345.75 L0 393.75 Z" class="st2"/>
			</g>
			<path d="M0 393.75 L64.8 393.75 L72 345.75 L7.2 345.75 L0 393.75 Z" class="st3"/>
			<text x="14.74" y="372.75" class="st4" v:langID="1033"><v:paragraph v:horizAlign="1"/><v:tabList/>pterms.txt</text>		</g>
		<g id="shape13-19" v:mID="13" v:groupContext="shape" transform="translate(3.08985,-5.3478)">
			<title>Parallelogram.13</title>
			<desc>rterms.txt</desc>
			<v:userDefs>
				<v:ud v:nameU="visVersion" v:prompt="" v:val="VT0(15):26"/>
			</v:userDefs>
			<v:textBlock v:margins="rect(4,4,4,4)"/>
			<v:textRect cx="36" cy="369.75" width="72" height="48"/>
			<g id="shadow13-20" v:groupContext="shadow" v:shadowOffsetX="0.345598" v:shadowOffsetY="-1.97279" v:shadowType="1"
					transform="matrix(1,0,0,1,0.345598,1.97279)" class="st1">
				<path d="M0 393.75 L64.8 393.75 L72 345.75 L7.2 345.75 L0 393.75 Z" class="st2"/>
			</g>
			<path d="M0 393.75 L64.8 393.75 L72 345.75 L7.2 345.75 L0 393.75 Z" class="st3"/>
			<text x="15.62" y="372.75" class="st4" v:langID="1033"><v:paragraph v:horizAlign="1"/><v:tabList/>rterms.txt</text>		</g>
		<g id="shape14-25" v:mID="14" v:groupContext="shape" transform="translate(129.09,-5.3478)">
			<title>Parallelogram.14</title>
			<desc>scores.txt</desc>
			<v:userDefs>
				<v:ud v:nameU="visVersion" v:prompt="" v:val="VT0(15):26"/>
			</v:userDefs>
			<v:textBlock v:margins="rect(4,4,4,4)"/>
			<v:textRect cx="36" cy="369.75" width="72" height="48"/>
			<g id="shadow14-26" v:groupContext="shadow" v:shadowOffsetX="0.345598" v:shadowOffsetY="-1.97279" v:shadowType="1"
					transform="matrix(1,0,0,1,0.345598,1.97279)" class="st1">
				<path d="M0 393.75 L64.8 393.75 L72 345.75 L7.2 345.75 L0 393.75 Z" class="st2"/>
			</g>
			<path d="M0 393.75 L64.8 393.75 L72 345.75 L7.2 345.75 L0 393.75 Z" class="st3"/>
			<text x="16.33" y="372.75" class="st4" v:langID="1033"><v:paragraph v:horizAlign="1"/><v:tabList/>scores.txt</text>		</g>
		<g id="shape17-31" v:mID="17" v:groupContext="shape" transform="translate(579.652,-83.3478)">
			<title>Parallelogram.17</title>
			<desc>Query Result on stdout</desc>
			<v:userDefs>
				<v:ud v:nameU="visVersion" v:prompt="" v:val="VT0(15):26"/>
			</v:userDefs>
			<v:textBlock v:margins="rect(4,4,4,4)"/>
			<v:textRect cx="36" cy="369.75" width="72" height="48"/>
			<g id="shadow17-32" v:groupContext="shadow" v:shadowOffsetX="0.345598" v:shadowOffsetY="-1.97279" v:shadowType="1"
					transform="matrix(1,0,0,1,0.345598,1.97279)" class="st1">
				<path d="M0 393.75 L64.8 393.75 L72 345.75 L7.2 345.75 L0 393.75 Z" class="st2"/>
			</g>
			<path d="M0 393.75 L64.8 393.75 L72 345.75 L7.2 345.75 L0 393.75 Z" class="st3"/>
			<text x="9.78" y="366.75" class="st4" v:langID="1033"><v:paragraph v:horizAlign="1"/><v:tabList/>Query Result <tspan
						x="16.41" dy="1.2em" class="st5">on stdout</tspan></text>		</g>
		<g id="shape18-38" v:mID="18" v:groupContext="shape" transform="translate(273.09,-74.3478)">
			<title>Parallelogram.18</title>
			<desc>rw.idx</desc>
			<v:userDefs>
				<v:ud v:nameU="visVersion" v:prompt="" v:val="VT0(15):26"/>
			</v:userDefs>
			<v:textBlock v:margins="rect(4,4,4,4)"/>
			<v:textRect cx="36" cy="369.75" width="72" height="48"/>
			<g id="shadow18-39" v:groupContext="shadow" v:shadowOffsetX="0.345598" v:shadowOffsetY="-1.97279" v:shadowType="1"
					transform="matrix(1,0,0,1,0.345598,1.97279)" class="st1">
				<path d="M0 393.75 L64.8 393.75 L72 345.75 L7.2 345.75 L0 393.75 Z" class="st2"/>
			</g>
			<path d="M0 393.75 L64.8 393.75 L72 345.75 L7.2 345.75 L0 393.75 Z" class="st3"/>
			<text x="23.48" y="372.75" class="st4" v:langID="1033"><v:paragraph v:horizAlign="1"/><v:tabList/>rw.idx</text>		</g>
		<g id="shape19-44" v:mID="19" v:groupContext="shape" transform="translate(372.09,-80.3478)">
			<title>Parallelogram.19</title>
			<desc>pt.idx</desc>
			<v:userDefs>
				<v:ud v:nameU="visVersion" v:prompt="" v:val="VT0(15):26"/>
			</v:userDefs>
			<v:textBlock v:margins="rect(4,4,4,4)"/>
			<v:textRect cx="36" cy="369.75" width="72" height="48"/>
			<g id="shadow19-45" v:groupContext="shadow" v:shadowOffsetX="0.345598" v:shadowOffsetY="-1.97279" v:shadowType="1"
					transform="matrix(1,0,0,1,0.345598,1.97279)" class="st1">
				<path d="M0 393.75 L64.8 393.75 L72 345.75 L7.2 345.75 L0 393.75 Z" class="st2"/>
			</g>
			<path d="M0 393.75 L64.8 393.75 L72 345.75 L7.2 345.75 L0 393.75 Z" class="st3"/>
			<text x="24.5" y="372.75" class="st4" v:langID="1033"><v:paragraph v:horizAlign="1"/><v:tabList/>pt.idx</text>		</g>
		<g id="shape20-50" v:mID="20" v:groupContext="shape" transform="translate(273.09,-5.3478)">
			<title>Parallelogram.20</title>
			<desc>rt.idx</desc>
			<v:userDefs>
				<v:ud v:nameU="visVersion" v:prompt="" v:val="VT0(15):26"/>
			</v:userDefs>
			<v:textBlock v:margins="rect(4,4,4,4)"/>
			<v:textRect cx="36" cy="369.75" width="72" height="48"/>
			<g id="shadow20-51" v:groupContext="shadow" v:shadowOffsetX="0.345598" v:shadowOffsetY="-1.97279" v:shadowType="1"
					transform="matrix(1,0,0,1,0.345598,1.97279)" class="st1">
				<path d="M0 393.75 L64.8 393.75 L72 345.75 L7.2 345.75 L0 393.75 Z" class="st2"/>
			</g>
			<path d="M0 393.75 L64.8 393.75 L72 345.75 L7.2 345.75 L0 393.75 Z" class="st3"/>
			<text x="25.38" y="372.75" class="st4" v:langID="1033"><v:paragraph v:horizAlign="1"/><v:tabList/>rt.idx</text>		</g>
		<g id="shape21-56" v:mID="21" v:groupContext="shape" transform="translate(381.09,-5.3478)">
			<title>Parallelogram.21</title>
			<desc>sc.idx</desc>
			<v:userDefs>
				<v:ud v:nameU="visVersion" v:prompt="" v:val="VT0(15):26"/>
			</v:userDefs>
			<v:textBlock v:margins="rect(4,4,4,4)"/>
			<v:textRect cx="36" cy="369.75" width="72" height="48"/>
			<g id="shadow21-57" v:groupContext="shadow" v:shadowOffsetX="0.345598" v:shadowOffsetY="-1.97279" v:shadowType="1"
					transform="matrix(1,0,0,1,0.345598,1.97279)" class="st1">
				<path d="M0 393.75 L64.8 393.75 L72 345.75 L7.2 345.75 L0 393.75 Z" class="st2"/>
			</g>
			<path d="M0 393.75 L64.8 393.75 L72 345.75 L7.2 345.75 L0 393.75 Z" class="st3"/>
			<text x="24.73" y="372.75" class="st4" v:langID="1033"><v:paragraph v:horizAlign="1"/><v:tabList/>sc.idx</text>		</g>
		<g id="group33-62" transform="translate(525.09,-163.973)" v:mID="33" v:groupContext="group">
			<title>Sheet.33</title>
			<g id="shape28-63" v:mID="28" v:groupContext="shape">
				<title>Rectangle.28</title>
				<desc>Phase 3</desc>
				<v:userDefs>
					<v:ud v:nameU="visVersion" v:val="VT0(15):26"/>
				</v:userDefs>
				<v:textBlock v:margins="rect(4,4,4,4)"/>
				<v:textRect cx="94.5" cy="348.75" width="189" height="90"/>
				<g id="shadow28-64" v:groupContext="shadow" v:shadowOffsetX="0.345598" v:shadowOffsetY="-1.97279" v:shadowType="1"
						transform="matrix(1,0,0,1,0.345598,1.97279)" class="st1">
					<rect x="0" y="303.75" width="189" height="90" class="st2"/>
				</g>
				<rect x="0" y="303.75" width="189" height="90" class="st3"/>
				<text x="78.79" y="315.75" class="st4" v:langID="1033"><v:paragraph v:horizAlign="1"/><v:tabList/>Phase 3<v:lf/><v:lf/><v:lf/><v:lf/><v:lf/><v:lf/></text>			</g>
			<g id="group29-69" transform="translate(0.39375,-18)" v:mID="29" v:groupContext="group">
				<title>Sheet.29</title>
				<g id="shape30-70" v:mID="30" v:groupContext="shape">
					<title>Rectangle.25</title>
					<v:userDefs>
						<v:ud v:nameU="visVersion" v:val="VT0(15):26"/>
					</v:userDefs>
					<rect x="0" y="348.75" width="188.213" height="45" class="st6"/>
				</g>
				<g id="shape31-74" v:mID="31" v:groupContext="shape">
					<title>Rectangle.22</title>
					<desc>evaluateQueries.py</desc>
					<v:userDefs>
						<v:ud v:nameU="visVersion" v:val="VT0(15):26"/>
					</v:userDefs>
					<v:textBlock v:margins="rect(4,4,4,4)"/>
					<v:textRect cx="52.6781" cy="371.25" width="105.36" height="45"/>
					<g id="shadow31-75" v:groupContext="shadow" v:shadowOffsetX="0.345598" v:shadowOffsetY="-1.97279"
							v:shadowType="1" transform="matrix(1,0,0,1,0.345598,1.97279)" class="st1">
						<rect x="0" y="348.75" width="105.356" height="45" class="st7"/>
					</g>
					<rect x="0" y="348.75" width="105.356" height="45" class="st8"/>
					<text x="13.24" y="374.25" class="st4" v:langID="1033"><v:paragraph v:horizAlign="1"/><v:tabList/>evaluateQueries.py</text>				</g>
				<g id="shape32-80" v:mID="32" v:groupContext="shape" transform="translate(116.212,0)">
					<title>Rectangle.24</title>
					<desc>Phase3.py</desc>
					<v:userDefs>
						<v:ud v:nameU="visVersion" v:val="VT0(15):26"/>
					</v:userDefs>
					<v:textBlock v:margins="rect(4,4,4,4)"/>
					<v:textRect cx="36" cy="371.25" width="72" height="45"/>
					<g id="shadow32-81" v:groupContext="shadow" v:shadowOffsetX="0.345598" v:shadowOffsetY="-1.97279"
							v:shadowType="1" transform="matrix(1,0,0,1,0.345598,1.97279)" class="st1">
						<rect x="0" y="348.75" width="72" height="45" class="st7"/>
					</g>
					<rect x="0" y="348.75" width="72" height="45" class="st8"/>
					<text x="15.27" y="374.25" class="st4" v:langID="1033"><v:paragraph v:horizAlign="1"/><v:tabList/>Phase3.py</text>				</g>
			</g>
		</g>
		<g id="group34-86" transform="translate(48.0898,-160.035)" v:mID="34" v:groupContext="group">
			<title>Sheet.34</title>
			<g id="shape1-87" v:mID="1" v:groupContext="shape">
				<title>Rectangle</title>
				<desc>Phase 1</desc>
				<v:userDefs>
					<v:ud v:nameU="visVersion" v:val="VT0(15):26"/>
				</v:userDefs>
				<v:textBlock v:margins="rect(4,4,4,4)"/>
				<v:textRect cx="67.5" cy="348.75" width="135" height="90"/>
				<g id="shadow1-88" v:groupContext="shadow" v:shadowOffsetX="0.345598" v:shadowOffsetY="-1.97279" v:shadowType="1"
						transform="matrix(1,0,0,1,0.345598,1.97279)" class="st1">
					<rect x="0" y="303.75" width="135" height="90" class="st2"/>
				</g>
				<rect x="0" y="303.75" width="135" height="90" class="st3"/>
				<text x="51.79" y="315.75" class="st4" v:langID="1033"><v:paragraph v:horizAlign="1"/><v:tabList/>Phase 1<v:lf/><v:lf/><v:lf/><v:lf/><v:lf/><v:lf/></text>			</g>
			<g id="group26-93" transform="translate(0.28125,-18)" v:mID="26" v:groupContext="group">
				<title>Sheet.26</title>
				<g id="shape25-94" v:mID="25" v:groupContext="shape">
					<title>Rectangle.25</title>
					<v:userDefs>
						<v:ud v:nameU="visVersion" v:val="VT0(15):26"/>
					</v:userDefs>
					<rect x="0" y="348.75" width="134.438" height="45" class="st6"/>
				</g>
				<g id="shape22-97" v:mID="22" v:groupContext="shape">
					<title>Rectangle.22</title>
					<desc>PrepData</desc>
					<v:userDefs>
						<v:ud v:nameU="visVersion" v:val="VT0(15):26"/>
					</v:userDefs>
					<v:textBlock v:margins="rect(4,4,4,4)"/>
					<v:textRect cx="31.6406" cy="371.25" width="63.29" height="45"/>
					<g id="shadow22-98" v:groupContext="shadow" v:shadowOffsetX="0.345598" v:shadowOffsetY="-1.97279"
							v:shadowType="1" transform="matrix(1,0,0,1,0.345598,1.97279)" class="st1">
						<rect x="0" y="348.75" width="63.2813" height="45" class="st7"/>
					</g>
					<rect x="0" y="348.75" width="63.2813" height="45" class="st8"/>
					<text x="12.66" y="374.25" class="st4" v:langID="1033"><v:paragraph v:horizAlign="1"/><v:tabList/>PrepData</text>				</g>
				<g id="shape24-103" v:mID="24" v:groupContext="shape" transform="translate(71.1562,0)">
					<title>Rectangle.24</title>
					<desc>Phase1.py</desc>
					<v:userDefs>
						<v:ud v:nameU="visVersion" v:val="VT0(15):26"/>
					</v:userDefs>
					<v:textBlock v:margins="rect(4,4,4,4)"/>
					<v:textRect cx="31.6406" cy="371.25" width="63.29" height="45"/>
					<g id="shadow24-104" v:groupContext="shadow" v:shadowOffsetX="0.345598" v:shadowOffsetY="-1.97279"
							v:shadowType="1" transform="matrix(1,0,0,1,0.345598,1.97279)" class="st1">
						<rect x="0" y="348.75" width="63.2813" height="45" class="st7"/>
					</g>
					<rect x="0" y="348.75" width="63.2813" height="45" class="st8"/>
					<text x="10.91" y="374.25" class="st4" v:langID="1033"><v:paragraph v:horizAlign="1"/><v:tabList/>Phase1.py</text>				</g>
			</g>
		</g>
		<g id="group35-109" transform="translate(291.09,-164.348)" v:mID="35" v:groupContext="group">
			<title>Sheet.35</title>
			<g id="shape36-110" v:mID="36" v:groupContext="shape">
				<title>Rectangle</title>
				<desc>Phase 2</desc>
				<v:userDefs>
					<v:ud v:nameU="visVersion" v:val="VT0(15):26"/>
				</v:userDefs>
				<v:textBlock v:margins="rect(4,4,4,4)"/>
				<v:textRect cx="67.5" cy="348.75" width="135" height="90"/>
				<g id="shadow36-111" v:groupContext="shadow" v:shadowOffsetX="0.345598" v:shadowOffsetY="-1.97279" v:shadowType="1"
						transform="matrix(1,0,0,1,0.345598,1.97279)" class="st1">
					<rect x="0" y="303.75" width="135" height="90" class="st2"/>
				</g>
				<rect x="0" y="303.75" width="135" height="90" class="st3"/>
				<text x="51.79" y="315.75" class="st4" v:langID="1033"><v:paragraph v:horizAlign="1"/><v:tabList/>Phase 2<v:lf/><v:lf/><v:lf/><v:lf/><v:lf/><v:lf/></text>			</g>
			<g id="group37-116" transform="translate(0.28125,-18)" v:mID="37" v:groupContext="group">
				<title>Sheet.37</title>
				<g id="shape38-117" v:mID="38" v:groupContext="shape">
					<title>Rectangle.25</title>
					<v:userDefs>
						<v:ud v:nameU="visVersion" v:val="VT0(15):26"/>
					</v:userDefs>
					<rect x="0" y="348.75" width="134.438" height="45" class="st6"/>
				</g>
				<g id="shape39-120" v:mID="39" v:groupContext="shape">
					<title>Rectangle.22</title>
					<desc>Break.pl</desc>
					<v:userDefs>
						<v:ud v:nameU="visVersion" v:val="VT0(15):26"/>
					</v:userDefs>
					<v:textBlock v:margins="rect(4,4,4,4)"/>
					<v:textRect cx="31.6406" cy="371.25" width="63.29" height="45"/>
					<g id="shadow39-121" v:groupContext="shadow" v:shadowOffsetX="0.345598" v:shadowOffsetY="-1.97279"
							v:shadowType="1" transform="matrix(1,0,0,1,0.345598,1.97279)" class="st1">
						<rect x="0" y="348.75" width="63.2813" height="45" class="st7"/>
					</g>
					<rect x="0" y="348.75" width="63.2813" height="45" class="st8"/>
					<text x="14.99" y="374.25" class="st4" v:langID="1033"><v:paragraph v:horizAlign="1"/><v:tabList/>Break.pl</text>				</g>
				<g id="shape40-126" v:mID="40" v:groupContext="shape" transform="translate(71.1562,0)">
					<title>Rectangle.24</title>
					<desc>Phase2.sh</desc>
					<v:userDefs>
						<v:ud v:nameU="visVersion" v:val="VT0(15):26"/>
					</v:userDefs>
					<v:textBlock v:margins="rect(4,4,4,4)"/>
					<v:textRect cx="31.6406" cy="371.25" width="63.29" height="45"/>
					<g id="shadow40-127" v:groupContext="shadow" v:shadowOffsetX="0.345598" v:shadowOffsetY="-1.97279"
							v:shadowType="1" transform="matrix(1,0,0,1,0.345598,1.97279)" class="st1">
						<rect x="0" y="348.75" width="63.2813" height="45" class="st7"/>
					</g>
					<rect x="0" y="348.75" width="63.2813" height="45" class="st8"/>
					<text x="11.21" y="374.25" class="st4" v:langID="1033"><v:paragraph v:horizAlign="1"/><v:tabList/>Phase2.sh</text>				</g>
			</g>
		</g>
		<g id="shape41-132" v:mID="41" v:groupContext="shape" transform="translate(264.09,-344.348)">
			<title>Parallelogram.41</title>
			<desc>reviews.txt</desc>
			<v:userDefs>
				<v:ud v:nameU="visVersion" v:prompt="" v:val="VT0(15):26"/>
			</v:userDefs>
			<v:textBlock v:margins="rect(4,4,4,4)"/>
			<v:textRect cx="36" cy="369.75" width="72" height="48"/>
			<g id="shadow41-133" v:groupContext="shadow" v:shadowOffsetX="0.345598" v:shadowOffsetY="-1.97279" v:shadowType="1"
					transform="matrix(1,0,0,1,0.345598,1.97279)" class="st1">
				<path d="M0 393.75 L64.8 393.75 L72 345.75 L7.2 345.75 L0 393.75 Z" class="st2"/>
			</g>
			<path d="M0 393.75 L64.8 393.75 L72 345.75 L7.2 345.75 L0 393.75 Z" class="st3"/>
			<text x="13.57" y="372.75" class="st4" v:langID="1033"><v:paragraph v:horizAlign="1"/><v:tabList/>reviews.txt</text>		</g>
		<g id="shape42-138" v:mID="42" v:groupContext="shape" transform="translate(390.09,-344.348)">
			<title>Parallelogram.42</title>
			<desc>pterms.txt</desc>
			<v:userDefs>
				<v:ud v:nameU="visVersion" v:prompt="" v:val="VT0(15):26"/>
			</v:userDefs>
			<v:textBlock v:margins="rect(4,4,4,4)"/>
			<v:textRect cx="36" cy="369.75" width="72" height="48"/>
			<g id="shadow42-139" v:groupContext="shadow" v:shadowOffsetX="0.345598" v:shadowOffsetY="-1.97279" v:shadowType="1"
					transform="matrix(1,0,0,1,0.345598,1.97279)" class="st1">
				<path d="M0 393.75 L64.8 393.75 L72 345.75 L7.2 345.75 L0 393.75 Z" class="st2"/>
			</g>
			<path d="M0 393.75 L64.8 393.75 L72 345.75 L7.2 345.75 L0 393.75 Z" class="st3"/>
			<text x="14.74" y="372.75" class="st4" v:langID="1033"><v:paragraph v:horizAlign="1"/><v:tabList/>pterms.txt</text>		</g>
		<g id="shape43-144" v:mID="43" v:groupContext="shape" transform="translate(259.59,-278.348)">
			<title>Parallelogram.43</title>
			<desc>rterms.txt</desc>
			<v:userDefs>
				<v:ud v:nameU="visVersion" v:prompt="" v:val="VT0(15):26"/>
			</v:userDefs>
			<v:textBlock v:margins="rect(4,4,4,4)"/>
			<v:textRect cx="36" cy="369.75" width="72" height="48"/>
			<g id="shadow43-145" v:groupContext="shadow" v:shadowOffsetX="0.345598" v:shadowOffsetY="-1.97279" v:shadowType="1"
					transform="matrix(1,0,0,1,0.345598,1.97279)" class="st1">
				<path d="M0 393.75 L64.8 393.75 L72 345.75 L7.2 345.75 L0 393.75 Z" class="st2"/>
			</g>
			<path d="M0 393.75 L64.8 393.75 L72 345.75 L7.2 345.75 L0 393.75 Z" class="st3"/>
			<text x="15.62" y="372.75" class="st4" v:langID="1033"><v:paragraph v:horizAlign="1"/><v:tabList/>rterms.txt</text>		</g>
		<g id="shape44-150" v:mID="44" v:groupContext="shape" transform="translate(385.59,-278.348)">
			<title>Parallelogram.44</title>
			<desc>scores.txt</desc>
			<v:userDefs>
				<v:ud v:nameU="visVersion" v:prompt="" v:val="VT0(15):26"/>
			</v:userDefs>
			<v:textBlock v:margins="rect(4,4,4,4)"/>
			<v:textRect cx="36" cy="369.75" width="72" height="48"/>
			<g id="shadow44-151" v:groupContext="shadow" v:shadowOffsetX="0.345598" v:shadowOffsetY="-1.97279" v:shadowType="1"
					transform="matrix(1,0,0,1,0.345598,1.97279)" class="st1">
				<path d="M0 393.75 L64.8 393.75 L72 345.75 L7.2 345.75 L0 393.75 Z" class="st2"/>
			</g>
			<path d="M0 393.75 L64.8 393.75 L72 345.75 L7.2 345.75 L0 393.75 Z" class="st3"/>
			<text x="16.33" y="372.75" class="st4" v:langID="1033"><v:paragraph v:horizAlign="1"/><v:tabList/>scores.txt</text>		</g>
		<g id="shape45-156" v:mID="45" v:groupContext="shape" transform="translate(531.84,-333.098)">
			<title>Parallelogram.45</title>
			<desc>rw.idx</desc>
			<v:userDefs>
				<v:ud v:nameU="visVersion" v:prompt="" v:val="VT0(15):26"/>
			</v:userDefs>
			<v:textBlock v:margins="rect(4,4,4,4)"/>
			<v:textRect cx="36" cy="369.75" width="72" height="48"/>
			<g id="shadow45-157" v:groupContext="shadow" v:shadowOffsetX="0.345598" v:shadowOffsetY="-1.97279" v:shadowType="1"
					transform="matrix(1,0,0,1,0.345598,1.97279)" class="st1">
				<path d="M0 393.75 L64.8 393.75 L72 345.75 L7.2 345.75 L0 393.75 Z" class="st2"/>
			</g>
			<path d="M0 393.75 L64.8 393.75 L72 345.75 L7.2 345.75 L0 393.75 Z" class="st3"/>
			<text x="23.48" y="372.75" class="st4" v:langID="1033"><v:paragraph v:horizAlign="1"/><v:tabList/>rw.idx</text>		</g>
		<g id="shape46-162" v:mID="46" v:groupContext="shape" transform="translate(630.84,-333.098)">
			<title>Parallelogram.46</title>
			<desc>pt.idx</desc>
			<v:userDefs>
				<v:ud v:nameU="visVersion" v:prompt="" v:val="VT0(15):26"/>
			</v:userDefs>
			<v:textBlock v:margins="rect(4,4,4,4)"/>
			<v:textRect cx="36" cy="369.75" width="72" height="48"/>
			<g id="shadow46-163" v:groupContext="shadow" v:shadowOffsetX="0.345598" v:shadowOffsetY="-1.97279" v:shadowType="1"
					transform="matrix(1,0,0,1,0.345598,1.97279)" class="st1">
				<path d="M0 393.75 L64.8 393.75 L72 345.75 L7.2 345.75 L0 393.75 Z" class="st2"/>
			</g>
			<path d="M0 393.75 L64.8 393.75 L72 345.75 L7.2 345.75 L0 393.75 Z" class="st3"/>
			<text x="24.5" y="372.75" class="st4" v:langID="1033"><v:paragraph v:horizAlign="1"/><v:tabList/>pt.idx</text>		</g>
		<g id="shape47-168" v:mID="47" v:groupContext="shape" transform="translate(529.59,-267.098)">
			<title>Parallelogram.47</title>
			<desc>rt.idx</desc>
			<v:userDefs>
				<v:ud v:nameU="visVersion" v:prompt="" v:val="VT0(15):26"/>
			</v:userDefs>
			<v:textBlock v:margins="rect(4,4,4,4)"/>
			<v:textRect cx="36" cy="369.75" width="72" height="48"/>
			<g id="shadow47-169" v:groupContext="shadow" v:shadowOffsetX="0.345598" v:shadowOffsetY="-1.97279" v:shadowType="1"
					transform="matrix(1,0,0,1,0.345598,1.97279)" class="st1">
				<path d="M0 393.75 L64.8 393.75 L72 345.75 L7.2 345.75 L0 393.75 Z" class="st2"/>
			</g>
			<path d="M0 393.75 L64.8 393.75 L72 345.75 L7.2 345.75 L0 393.75 Z" class="st3"/>
			<text x="25.38" y="372.75" class="st4" v:langID="1033"><v:paragraph v:horizAlign="1"/><v:tabList/>rt.idx</text>		</g>
		<g id="shape48-174" v:mID="48" v:groupContext="shape" transform="translate(630.84,-267.098)">
			<title>Parallelogram.48</title>
			<desc>sc.idx</desc>
			<v:userDefs>
				<v:ud v:nameU="visVersion" v:prompt="" v:val="VT0(15):26"/>
			</v:userDefs>
			<v:textBlock v:margins="rect(4,4,4,4)"/>
			<v:textRect cx="36" cy="369.75" width="72" height="48"/>
			<g id="shadow48-175" v:groupContext="shadow" v:shadowOffsetX="0.345598" v:shadowOffsetY="-1.97279" v:shadowType="1"
					transform="matrix(1,0,0,1,0.345598,1.97279)" class="st1">
				<path d="M0 393.75 L64.8 393.75 L72 345.75 L7.2 345.75 L0 393.75 Z" class="st2"/>
			</g>
			<path d="M0 393.75 L64.8 393.75 L72 345.75 L7.2 345.75 L0 393.75 Z" class="st3"/>
			<text x="24.73" y="372.75" class="st4" v:langID="1033"><v:paragraph v:horizAlign="1"/><v:tabList/>sc.idx</text>		</g>
		<g id="shape49-180" v:mID="49" v:groupContext="shape" v:layerMember="0" transform="translate(104.79,-272.348)">
			<title>Dynamic connector</title>
			<path d="M7.2 393.75 L10.8 400.5 L10.8 409.02" class="st9"/>
		</g>
		<g id="shape50-186" v:mID="50" v:groupContext="shape" v:layerMember="0" transform="translate(115.59,-160.035)">
			<title>Dynamic connector.50</title>
			<path d="M0 393.75 L0 407.25 L-72.9 407.25 L-72.9 415.4" class="st9"/>
		</g>
		<g id="shape51-191" v:mID="51" v:groupContext="shape" v:layerMember="0" transform="translate(115.59,-160.035)">
			<title>Dynamic connector.51</title>
			<path d="M0 393.75 L0 486.94 L-72.9 486.94 L-72.9 493.4" class="st9"/>
		</g>
		<g id="shape52-196" v:mID="52" v:groupContext="shape" v:layerMember="0" transform="translate(115.59,-160.035)">
			<title>Dynamic connector.52</title>
			<path d="M0 393.75 L0 407.25 L57.6 407.25 L57.6 415.4" class="st9"/>
		</g>
		<g id="shape53-201" v:mID="53" v:groupContext="shape" v:layerMember="0" transform="translate(115.14,-160.035)">
			<title>Dynamic connector.53</title>
			<path d="M0.45 393.75 L0.45 524.44 L10.51 524.44" class="st9"/>
		</g>
		<g id="shape54-206" v:mID="54" v:groupContext="shape" v:layerMember="0" transform="translate(183.09,-213.942)">
			<title>Dynamic connector.54</title>
			<path d="M0 402.66 L101.24 402.83" class="st9"/>
		</g>
		<g id="shape56-211" v:mID="56" v:groupContext="shape" v:layerMember="0" transform="translate(425.809,-213.66)">
			<title>Dynamic connector.56</title>
			<path d="M0 402.56 L92.64 402.91" class="st9"/>
		</g>
		<g id="shape58-216" v:mID="58" v:groupContext="shape" v:layerMember="0" transform="translate(296.49,-344.348)">
			<title>Dynamic connector.58</title>
			<path d="M0 393.75 L0 400.5 L62.1 400.5 L62.1 476.71" class="st9"/>
		</g>
		<g id="shape59-221" v:mID="59" v:groupContext="shape" v:layerMember="0" transform="translate(327.99,-302.348)">
			<title>Dynamic connector.59</title>
			<path d="M0 393.75 L30.6 393.75 L30.6 434.71" class="st9"/>
		</g>
		<g id="shape60-226" v:mID="60" v:groupContext="shape" v:layerMember="0" transform="translate(422.49,-344.348)">
			<title>Dynamic connector.60</title>
			<path d="M0 393.75 L0 400.5 L-63.9 400.5 L-63.9 476.71" class="st9"/>
		</g>
		<g id="shape61-231" v:mID="61" v:groupContext="shape" v:layerMember="0" transform="translate(389.19,-302.348)">
			<title>Dynamic connector.61</title>
			<path d="M0 393.75 L-30.6 393.75 L-30.6 434.71" class="st9"/>
		</g>
		<g id="shape62-236" v:mID="62" v:groupContext="shape" v:layerMember="0" transform="translate(358.59,-164.348)">
			<title>Dynamic connector.62</title>
			<path d="M0 393.75 L0 407.25 L-45.9 407.25 L-45.9 428.71" class="st9"/>
		</g>
		<g id="shape64-241" v:mID="64" v:groupContext="shape" v:layerMember="0" transform="translate(358.59,-164.348)">
			<title>Dynamic connector.64</title>
			<path d="M0 393.75 L0 528.75 L19.06 528.75" class="st9"/>
		</g>
		<g id="shape65-246" v:mID="65" v:groupContext="shape" v:layerMember="0" transform="translate(564.24,-333.098)">
			<title>Dynamic connector.65</title>
			<path d="M0 393.75 L0 400.5 L55.35 400.5 L55.35 465.84" class="st9"/>
		</g>
		<g id="shape66-251" v:mID="66" v:groupContext="shape" v:layerMember="0" transform="translate(597.99,-291.098)">
			<title>Dynamic connector.66</title>
			<path d="M0 393.75 L21.6 393.75 L21.6 423.84" class="st9"/>
		</g>
		<g id="shape67-256" v:mID="67" v:groupContext="shape" v:layerMember="0" transform="translate(663.24,-333.098)">
			<title>Dynamic connector.67</title>
			<path d="M0 393.75 L0 400.5 L-43.65 400.5 L-43.65 465.84" class="st9"/>
		</g>
		<g id="shape68-261" v:mID="68" v:groupContext="shape" v:layerMember="0" transform="translate(636.015,-291.098)">
			<title>Dynamic connector.68</title>
			<path d="M-1.57 393.75 L-16.43 393.75 L-16.43 423.84" class="st9"/>
		</g>
		<g id="shape69-266" v:mID="69" v:groupContext="shape" v:layerMember="0" transform="translate(628.421,-163.973)">
			<title>Dynamic connector.69</title>
			<path d="M-8.83 393.75 L-9.1 419.34" class="st9"/>
		</g>
		<g id="shape71-271" v:mID="71" v:groupContext="shape" v:layerMember="0" transform="translate(359.04,-164.348)">
			<title>Dynamic connector.71</title>
			<path d="M-0.45 393.75 L-0.45 528.75 L-10.51 528.75" class="st9"/>
		</g>
		<g id="shape72-276" v:mID="72" v:groupContext="shape" v:layerMember="0" transform="translate(358.59,-164.348)">
			<title>Dynamic connector.72</title>
			<path d="M0 393.75 L0 407.25 L53.1 407.25 L53.1 422.71" class="st9"/>
		</g>
	</g>
</svg>
